# xmcd
#
# Track frame offsets:
#	150
#	15058
#	29060
#	42921
#	56181
#	69744
#	84399
#	91636
#	106162
#	120331
#	133225
#	146423
#	159527
#	173677
#	187753
#	196239
#	209575
#	223051
#
# Disc length: 3175 seconds
#
# Revision: 0
# Processed by: cddbd v1.5.2PL0 Copyright (c) Steve Scherf et al.
# Submitted via: audiograbber 1.83.01
#
DISCID=f30c6512
DTITLE=Ella Fitzgerald - Masters of Music - CD 5
DYEAR=2005
DGENRE=Oldies
TTITLE0=Sentimental journey
TTITLE1=Untiteled Instrumental
TTITLE2=If you ever change your mind
TTITLE3=I was doing all right
TTITLE4=Betcha Nickel
TTITLE5=The Dipsy Doodle
TTITLE6=Someone like you
TTITLE7=Guilty
TTITLE8=My heart belongs to daddy
TTITLE9=Love is the thing so they say
TTITLE10=This love of mine
TTITLE11=You won't be satisfied
TTITLE12=Darktown Strutter's Ball
TTITLE13=I can't stop loving you
TTITLE14=It's too soon to know
TTITLE15=Who are you?
TTITLE16=All I need is you
TTITLE17=One side of me
EXTD=
EXTT0=
EXTT1=
EXTT2=
EXTT3=
EXTT4=
EXTT5=
EXTT6=
EXTT7=
EXTT8=
EXTT9=
EXTT10=
EXTT11=
EXTT12=
EXTT13=
EXTT14=
EXTT15=
EXTT16=
EXTT17=
PLAYORDER=
